<?xml version="1.0" encoding="utf-8"?>
<!-- Generator: Adobe Illustrator 19.0.0, SVG Export Plug-In . SVG Version: 6.00 Build 0)  -->
<svg version="1.1" id="Layer_2" xmlns="http://www.w3.org/2000/svg" xmlns:xlink="http://www.w3.org/1999/xlink" x="0px" y="0px"
	 width="1024px" height="1024px" viewBox="0 0 1024 1024" style="enable-background:new 0 0 1024 1024;" xml:space="preserve">
<path id="XMLID_2_" d="M794.3,313.8l-3.4-3.4c-15.6-15.6-41-15.6-56.6,0L422.8,622.1L289.2,488.5c-15.6-15.6-41-15.6-56.6,0
	l-3.4,3.4c-15.6,15.6-15.6,41,0,56.6l164.3,163.8l1.2,1.2c15.6,15.6,41,15.6,56.6,0l343.1-343.1
	C809.9,354.8,809.9,329.4,794.3,313.8z"/>
<path id="XMLID_3_" d="M511.8,1002.2c-66.1,0-130.3-13-190.7-38.5c-58.4-24.7-110.8-60-155.7-105c-45-45-80.3-97.4-105-155.7
	c-25.6-60.4-38.5-124.6-38.5-190.7c0-66.1,13-130.3,38.5-190.7c24.7-58.4,60-110.8,105-155.7c45-45,97.4-80.3,155.7-105
	c60.4-25.6,124.6-38.5,190.7-38.5c66.1,0,130.3,13,190.7,38.5c58.4,24.7,110.8,60,155.7,105c45,45,80.3,97.4,105,155.7
	c25.6,60.4,38.5,124.6,38.5,190.7c0,66.1-13,130.3-38.5,190.7c-24.7,58.4-60,110.8-105,155.7c-45,45-97.4,80.3-155.7,105
	C642.1,989.2,577.9,1002.2,511.8,1002.2z M511.8,102.2c-55.4,0-109.1,10.8-159.6,32.2c-48.8,20.6-92.7,50.2-130.3,87.9
	c-37.7,37.7-67.2,81.5-87.9,130.3c-21.4,50.5-32.2,104.2-32.2,159.6c0,55.4,10.8,109.1,32.2,159.6c20.6,48.8,50.2,92.7,87.9,130.3
	c37.7,37.7,81.5,67.2,130.3,87.9c50.5,21.4,104.2,32.2,159.6,32.2c55.4,0,109.1-10.8,159.6-32.2c48.8-20.6,92.7-50.2,130.3-87.9
	c37.7-37.7,67.2-81.5,87.9-130.3c21.4-50.5,32.2-104.2,32.2-159.6c0-55.4-10.8-109.1-32.2-159.6c-20.6-48.8-50.2-92.7-87.9-130.3
	c-37.7-37.7-81.5-67.2-130.3-87.9C620.8,113,567.1,102.2,511.8,102.2z"/>
</svg>
