<?xml version="1.0" encoding="utf-8"?>
<!-- Generator: Adobe Illustrator 19.0.0, SVG Export Plug-In . SVG Version: 6.00 Build 0)  -->
<svg version="1.1" id="Layer_2" xmlns="http://www.w3.org/2000/svg" xmlns:xlink="http://www.w3.org/1999/xlink" x="0px" y="0px"
	 width="1024px" height="1024px" viewBox="0 0 1024 1024" style="enable-background:new 0 0 1024 1024;" xml:space="preserve">
<g id="XMLID_7_">
	<path id="XMLID_5_" d="M912.2,223.6L223.6,912.2c-15.6,15.6-41,15.6-56.6,0L111.8,857c-15.6-15.6-15.6-41,0-56.6l688.6-688.6
		c15.6-15.6,41-15.6,56.6,0l55.2,55.2C927.8,182.6,927.8,208,912.2,223.6z"/>
	<path id="XMLID_6_" d="M111.8,223.6l688.6,688.6c15.6,15.6,41,15.6,56.6,0l55.2-55.2c15.6-15.6,15.6-41,0-56.6L223.6,111.8
		c-15.6-15.6-41-15.6-56.6,0L111.8,167C96.2,182.6,96.2,208,111.8,223.6z"/>
</g>
</svg>
