<?xml version="1.0" encoding="utf-8"?>
<!-- Generator: Adobe Illustrator 19.0.0, SVG Export Plug-In . SVG Version: 6.00 Build 0)  -->
<svg version="1.1" id="Layer_1" xmlns="http://www.w3.org/2000/svg" xmlns:xlink="http://www.w3.org/1999/xlink" x="0px" y="0px"
	 width="1024px" height="1024px" viewBox="0 0 1024 1024" style="enable-background:new 0 0 1024 1024;" xml:space="preserve">
<path id="XMLID_9_" d="M653,151.9L117.8,687.1l193,193L846,344.8L653,151.9z M708,332.6l21.8,21.8L355.3,729l-21.8-21.8L708,332.6z"
	/>
<path id="XMLID_8_" d="M802.8,72.9l122.3,122.3c19.1,19.1,17.4,53.1-3.7,74.2l-8.8,8.8l-8.8,8.8l-39.5,39.5l-35.3-35.3L706.8,168.9
	l-35.4-35.4L710.9,94l8.8-8.8l8.8-8.8C749.6,55.4,783.7,53.8,802.8,72.9z"/>
<path id="XMLID_5_" d="M117.8,687.1L84.8,913l225.9-33L117.8,687.1z M250.7,858.1L182,868.2V817h-52.5l10.4-69.7L250.7,858.1z"/>
</svg>
