<?xml version="1.0" encoding="utf-8"?>
<!-- Generator: Adobe Illustrator 19.0.0, SVG Export Plug-In . SVG Version: 6.00 Build 0)  -->
<svg version="1.1" id="Layer_1" xmlns="http://www.w3.org/2000/svg" xmlns:xlink="http://www.w3.org/1999/xlink" x="0px" y="0px"
	 width="1024px" height="1024px" viewBox="0 0 1024 1024" style="enable-background:new 0 0 1024 1024;" xml:space="preserve">
<g id="XMLID_112_">
	<path id="XMLID_117_" d="M702.9,103.4H316.5c-118.5,0-215.4,99-215.4,220v377.2c0,121,96.9,220,215.4,220h386.4
		c118.5,0,215.4-99,215.4-220V323.4C918.3,202.4,821.4,103.4,702.9,103.4z M845.2,695.1c0,83.8-67.1,152.3-149.1,152.3H323.4
		c-82,0-149.1-68.5-149.1-152.3V328.9c0-83.8,67.1-152.3,149.1-152.3l372.6,0c82,0,149.1,68.5,149.1,152.3V695.1z"/>
	<path id="XMLID_114_" d="M509.7,302.2c-113.5,0-205.4,93.9-205.4,209.8c0,115.9,92,209.8,205.4,209.8s205.4-93.9,205.4-209.8
		S623.1,302.2,509.7,302.2z M509.7,647.4c-73.2,0-132.5-60.6-132.5-135.4c0-74.8,59.3-135.4,132.5-135.4
		c73.2,0,132.5,60.6,132.5,135.4C642.2,586.8,582.9,647.4,509.7,647.4z"/>
	<ellipse id="XMLID_71_" cx="726.2" cy="291" rx="46.4" ry="47.4"/>
</g>
</svg>
